<svg xmlns="http://www.w3.org/2000/svg" width="50" height="50" viewBox="0 0 50 50">
  <g id="ff-icon" transform="translate(-440 -359)">
    <circle id="Ellipse_53" data-name="Ellipse 53" cx="25" cy="25" r="25" transform="translate(440 359)" fill="#455466"/>
    <g id="Group_281" data-name="Group 281" transform="translate(-84.048 -3.986)">
      <g id="Group_281-2" data-name="Group 281" transform="translate(538 374.348)">
        <path id="Path_74" data-name="Path 74" d="M13.571,18.509h2.71a1.49,1.49,0,0,1,1.47,1.516v4.134a1.48,1.48,0,0,1-1.47,1.47h-2.71v8.039a1.529,1.529,0,0,1-1.516,1.516H6.634a1.49,1.49,0,0,1-1.47-1.516V25.675H4.016A1.521,1.521,0,0,1,2.5,24.2V20.071a1.529,1.529,0,0,1,1.516-1.516H5.164C5.164,14.512,6.313,9,13.662,9h3.17c.965,0,.873.873.873,1.378V15.11a1.111,1.111,0,0,1-1.194,1.1h-.459a2.158,2.158,0,0,0-2.481,2.3" transform="translate(-2.5 -8.954)" fill="none" stroke="#fff" stroke-linejoin="round" stroke-width="1"/>
        <path id="Path_75" data-name="Path 75" d="M31.652,8.9H28.023c.965,0,.873.873.873,1.378V15.01a1.118,1.118,0,0,1-1.1,1.1h-.551a2.214,2.214,0,0,0-2.526,2.159v.184h2.71a1.49,1.49,0,0,1,1.47,1.516V24.1a1.48,1.48,0,0,1-1.47,1.47h-2.71v8.039A1.529,1.529,0,0,1,23.2,35.13h1.424c7.35,0,8.5-5.558,8.5-9.555h1.194a1.52,1.52,0,0,0,1.47-1.516V19.925a1.49,1.49,0,0,0-1.516-1.47H33.122V10.416A1.41,1.41,0,0,0,31.652,8.9" transform="translate(-13.691 -8.9)" fill="none" stroke="#fff" stroke-linejoin="round" stroke-width="1"/>
        <path id="Path_76" data-name="Path 76" d="M24.988,8.9H23.2a1.529,1.529,0,0,0-1.516,1.516v7.855a2.239,2.239,0,0,1,2.526-2.159h.551a1.118,1.118,0,0,0,1.1-1.1V10.278c0-.505.092-1.378-.873-1.378M21.68,18.455H18.97a1.48,1.48,0,0,0-1.47,1.47v4.134a1.521,1.521,0,0,0,1.47,1.516h5.42a1.48,1.48,0,0,0,1.47-1.47V19.971a1.521,1.521,0,0,0-1.47-1.516H21.68m0,7.35a2.239,2.239,0,0,1-2.526,2.159H18.6a1.118,1.118,0,0,0-1.1,1.1V33.8c0,1.332.322,1.378.781,1.378H20.21a1.529,1.529,0,0,0,1.516-1.516V25.8Z" transform="translate(-10.61 -8.9)" fill="#fff"/>
      </g>
      <path id="Shape" d="M23.857,26.707a2.854,2.854,0,1,0-2.64-1.76,2.854,2.854,0,0,0,2.64,1.76Zm-.732-4.613a1.9,1.9,0,1,1-1.034,1.029,1.9,1.9,0,0,1,1.034-1.029Z" transform="translate(525.318 363.633)" fill="#455466"/>
    </g>
  </g>
</svg>
