<svg xmlns="http://www.w3.org/2000/svg" xmlns:xlink="http://www.w3.org/1999/xlink" width="86" height="86" viewBox="0 0 86 86">
  <defs>
    <clipPath id="clip-path">
      <circle id="Ellipse_76" data-name="Ellipse 76" cx="43" cy="43" r="43" transform="translate(1726 234)" fill="#fff" stroke="#707070" stroke-width="1"/>
    </clipPath>
  </defs>
  <g id="Group_996" data-name="Group 996" transform="translate(-1726 -234)">
    <g id="Mask_Group_17" data-name="Mask Group 17" clip-path="url(#clip-path)">
      <g id="Mr_phil-01" data-name="Mr phil-01" transform="translate(1733.163 220.312)">
        <path id="Path_165" data-name="Path 165" d="M66.837,305.292H5.8c.085-1.672.212-3.259.339-4.7.021-.148.021-.3.042-.444A15.681,15.681,0,0,1,16.34,287.3l3.005-1.079,1.228-.444a19.219,19.219,0,0,1,4.042-.72l23.132-.36a16.98,16.98,0,0,1,6.2,1.651l3.407,1.439a17.272,17.272,0,0,1,5.757,3.915c2.921,3.026,3.069,5.46,3.386,9.079.127,1.4.254,2.921.339,4.508" transform="translate(0 -205.604)" fill="#171c36"/>
        <path id="Path_166" data-name="Path 166" d="M146.877,361.108l-.614-5.608h-3.534l-.529,5.608Z" transform="translate(-107.532 -261.42)" fill="#4cc9ba"/>
        <path id="Path_167" data-name="Path 167" d="M136.746,318.68l-5.757,7.407-5.989-7.2,3.175-3.492h5.376Z" transform="translate(-93.973 -229.807)" fill="#364456"/>
        <path id="Path_168" data-name="Path 168" d="M132.942,217.6v19.471q-7.46,5.651-14.942,0V217.6Z" transform="translate(-88.454 -152.706)" fill="#e8d4db"/>
        <path id="Path_169" data-name="Path 169" d="M132.942,221.1v12.233c-5.82,4.317-11.852,1.989-14.942.233V221.1Z" transform="translate(-88.454 -155.465)" fill="#e27993"/>
        <path id="Path_170" data-name="Path 170" d="M105.817,76.455c0,14.667-8.127,26.54-18.159,26.54-9.037,0-16.508-9.63-17.926-22.243h0a40.7,40.7,0,0,1-.233-4.275,38.089,38.089,0,0,1,1.228-9.63l.19-.7S74.9,58,87.235,58c12.36,0,17.143,8.148,17.143,8.148a36.643,36.643,0,0,1,1.439,10.307" transform="translate(-50.219 -26.883)" fill="#e8d4db"/>
        <path id="Path_171" data-name="Path 171" d="M140.9,182.274s.317-2.074,3.069-2.074,3.175,2.074,3.175,2.074Z" transform="translate(-106.508 -123.221)" fill="#e27993"/>
        <path id="Path_172" data-name="Path 172" d="M135.54,212.763a6.513,6.513,0,0,1-.127,1.291,7.109,7.109,0,0,1-1.82,3.619,7.229,7.229,0,0,1-10.667,0,7.365,7.365,0,0,1-1.82-3.619,6.511,6.511,0,0,1-.106-1.291V212.7h14.54v.063" transform="translate(-90.819 -148.843)" fill="#e27993"/>
        <path id="Path_173" data-name="Path 173" d="M135.54,212.763a6.513,6.513,0,0,1-.127,1.291H121.106a6.511,6.511,0,0,1-.106-1.291V212.7h14.54v.063" transform="translate(-90.819 -148.843)" fill="#fff"/>
        <path id="Path_174" data-name="Path 174" d="M140.867,228.653a7.229,7.229,0,0,1-10.667,0,7.954,7.954,0,0,1,10.667,0" transform="translate(-98.072 -159.801)" fill="#e27993"/>
        <path id="Path_175" data-name="Path 175" d="M190.471,148.761c0,1.418-.783,2.561-1.735,2.561S187,150.179,187,148.761s.783-2.561,1.735-2.561,1.735,1.143,1.735,2.561" transform="translate(-142.851 -96.417)" fill="#171c36"/>
        <path id="Path_176" data-name="Path 176" d="M111.871,148.761c0,1.418-.783,2.561-1.735,2.561s-1.735-1.143-1.735-2.561.783-2.561,1.735-2.561c.974,0,1.735,1.143,1.735,2.561" transform="translate(-80.886 -96.417)" fill="#171c36"/>
        <path id="Path_177" data-name="Path 177" d="M96.694,120.556a11.454,11.454,0,0,0-7.894,2.5L89.625,125a14.084,14.084,0,0,1,7.344-2.222Z" transform="translate(-65.434 -76.169)" fill="#171c36"/>
        <path id="Path_178" data-name="Path 178" d="M180.875,120.556a11.454,11.454,0,0,1,7.894,2.5L187.944,125a14.177,14.177,0,0,0-7.344-2.222Z" transform="translate(-137.805 -76.169)" fill="#171c36"/>
        <path id="Path_179" data-name="Path 179" d="M102,284.4h0c-2.836,0-4.3,2.307-4.3,5.143v9.9l10.73-6.9S102,289.183,102,284.4" transform="translate(-72.45 -205.368)" fill="#455466"/>
        <path id="Path_180" data-name="Path 180" d="M165.9,284.4h0c2.836,0,4.4,2.307,4.4,5.143v9.9l-10.5-6.9s6.1-3.365,6.1-8.148" transform="translate(-121.408 -205.368)" fill="#455466"/>
        <path id="Path_181" data-name="Path 181" d="M98.009,41.049c-4.275.762-10.1.91-15.2-2.074-9.418-5.524-11.577,1.058-11.577,1.058s-4.3-7.323,3.958-12.783c4.593-3.048,8.571-3.556,11.958-3.132a31.186,31.186,0,0,1,6.984,1.989c4.423,1.651,8.656-2.116,8.656-2.116h0a8.164,8.164,0,0,1,3.365,5.312,10.03,10.03,0,0,1-8.148,11.746" transform="translate(-50.707 -0.07)" fill="#455466"/>
        <path id="Path_182" data-name="Path 182" d="M98.009,40.979c-4.275.762-10.1.91-15.2-2.074-9.418-5.524-11.577,1.058-11.577,1.058s-4.3-7.323,3.958-12.783c4.593-3.048,8.571-3.556,11.958-3.132,0,0-6.667.783-5.884,5.672.762,4.889,9.122,7.979,15.344,6.265,6.2-1.714,9.439-6.878,6.2-12.085a8.164,8.164,0,0,1,3.365,5.312,10.07,10.07,0,0,1-8.169,11.767" transform="translate(-50.707)" fill="#171c36"/>
        <path id="Path_183" data-name="Path 183" d="M64.147,83.354S60.824,86.3,61.48,90.042s1.672,7.831,1.672,7.831h1.27V92.5s3.238-1.587,2.265-9.4Z" transform="translate(-43.829 -46.671)" fill="#171c36"/>
        <path id="Path_184" data-name="Path 184" d="M223.233,83.354s3.323,2.942,2.667,6.688a66.593,66.593,0,0,0-.8,7.831H223.53l-.571-5.376s-3.323-3.005-1.672-9.4Z" transform="translate(-169.518 -46.671)" fill="#171c36"/>
        <path id="Path_185" data-name="Path 185" d="M231.2,149.629h0a5.564,5.564,0,0,0,6.1-4.91l.593-5.524a5.552,5.552,0,0,0-4.91-6.1Z" transform="translate(-177.697 -86.089)" fill="#171c36"/>
        <path id="Path_186" data-name="Path 186" d="M246.668,154.7a4.054,4.054,0,1,1-.36,8.085,4.244,4.244,0,0,1-.508-.085Z" transform="translate(-189.207 -103.118)" fill="#171c36"/>
        <path id="Path_187" data-name="Path 187" d="M52.174,149.629h0a5.564,5.564,0,0,1-6.1-4.91l-.593-5.524a5.552,5.552,0,0,1,4.91-6.1Z" transform="translate(-31.263 -86.089)" fill="#171c36"/>
        <path id="Path_188" data-name="Path 188" d="M43.122,154.7a4.054,4.054,0,1,0,.36,8.085,4.244,4.244,0,0,0,.508-.085Z" transform="translate(-26.169 -103.118)" fill="#171c36"/>
        <path id="Path_189" data-name="Path 189" d="M97.847,61.373h-1.27a19.7,19.7,0,0,0-39.407,0H55.9a20.973,20.973,0,0,1,41.947,0" transform="translate(-39.497 -13.008)" fill="#171c36"/>
        <path id="Path_190" data-name="Path 190" d="M80.017,213.805c-8.254,0-12.254-4.085-14.159-7.513a17.613,17.613,0,0,1-2.159-7.471l1.27-.021a16.69,16.69,0,0,0,2.011,6.921c2.54,4.529,6.921,6.815,13.037,6.815Z" transform="translate(-45.646 -137.884)" fill="#171c36"/>
        <path id="Path_191" data-name="Path 191" d="M138.227,261.275h-3.64a1.587,1.587,0,0,1,0-3.175h3.64a1.585,1.585,0,0,1,1.587,1.587,1.559,1.559,0,0,1-1.587,1.587" transform="translate(-100.28 -184.634)" fill="#171c36"/>
      </g>
    </g>
    <g id="Ellipse_77" data-name="Ellipse 77" transform="translate(1726 234)" fill="none" stroke="#171c36" stroke-width="1">
      <circle cx="43" cy="43" r="43" stroke="none"/>
      <circle cx="43" cy="43" r="42.5" fill="none"/>
    </g>
  </g>
</svg>
