<svg id="Atechy_logo" data-name="Atechy logo" xmlns="http://www.w3.org/2000/svg" width="215.485" height="80.501" viewBox="0 0 215.485 80.501">
  <path id="Path_279" data-name="Path 279" d="M19.082,14.371a19.081,19.081,0,0,0-.688,38.149v.015h.3c.14,0,.277.022.417.022.205,0,.381-.015.574-.022h9.657V45.323H27.734L19.082,45.3a11.839,11.839,0,0,1-.187-23.675A12.016,12.016,0,0,1,30.923,33.68V52.534h7.256V32.765h-.041A19.1,19.1,0,0,0,19.082,14.371" transform="translate(0 3.304)" fill="#fff"/>
  <path id="Path_280" data-name="Path 280" d="M76.469,27.019v-.043h-.015a.052.052,0,0,1,.012.02.053.053,0,0,1,0,.023" transform="translate(17.575 6.201)" fill="#fff"/>
  <path id="Path_281" data-name="Path 281" d="M49.366,18.207v-.283h-6.9V14.049a6.9,6.9,0,0,0-6.9-6.9h-.284V47.321a6.9,6.9,0,0,0,6.9,6.9h.284V25.1a6.9,6.9,0,0,0,6.9-6.9" transform="translate(8.111 1.643)" fill="#fff"/>
  <path id="Path_282" data-name="Path 282" d="M97.362,21.556a11.853,11.853,0,0,1,8.052,3.136,9.3,9.3,0,0,0,9.716,1.748,19.08,19.08,0,1,0,0,14.056,9.3,9.3,0,0,0-9.716,1.749,11.908,11.908,0,1,1-8.053-20.689" transform="translate(17.993 3.307)" fill="#fff"/>
  <path id="Path_283" data-name="Path 283" d="M141.974,23.177a19.045,19.045,0,0,0-23.813,0V7.189A7.187,7.187,0,0,0,110.972,0V48.671a7.172,7.172,0,0,0,7.189,7.189V38.091a11.915,11.915,0,0,1,23.813-.609V48.674a7.167,7.167,0,0,0,.942,3.552,7.468,7.468,0,0,0,1.16,1.536,7.161,7.161,0,0,0,5.087,2.1V38.091a18.985,18.985,0,0,0-7.189-14.914" transform="translate(25.511 0)" fill="#fff"/>
  <path id="Path_284" data-name="Path 284" d="M180.244,18.248a7.164,7.164,0,0,0-5.083-2.1V33.916a11.915,11.915,0,0,1-23.813.609V23.333a7.163,7.163,0,0,0-.942-3.551,7.521,7.521,0,0,0-1.16-1.536,7.166,7.166,0,0,0-5.088-2.1V33.916a19.082,19.082,0,0,0,31,14.914V64.818A7.188,7.188,0,0,0,182.346,72V23.335a7.158,7.158,0,0,0-2.1-5.087" transform="translate(33.14 3.711)" fill="#fff"/>
  <path id="Path_285" data-name="Path 285" d="M82.592,26.633q-.111-.291-.232-.579a19.05,19.05,0,0,0-14.6-11.438,19.339,19.339,0,0,0-4.086-.208h-.089A19.094,19.094,0,1,0,82.542,40.426a9.47,9.47,0,0,0-9.8,1.889,11.907,11.907,0,0,1-19.324-5.257h22.91a7.187,7.187,0,0,0,6.949-5.335,6.981,6.981,0,0,0,.246-1.261,4.161,4.161,0,0,0-.149-1.238,18.827,18.827,0,0,0-.785-2.6ZM53.42,29.87a11.906,11.906,0,0,1,22.7,0Z" transform="translate(10.5 3.305)" fill="#fff"/>
  <path id="Path_286" data-name="Path 286" d="M56.319,54.256v6.226a2.022,2.022,0,0,0,.461,1.395,1.636,1.636,0,0,0,1.291.519,2.2,2.2,0,0,0,1.591-.807l1.06,1.82a4.4,4.4,0,0,1-3.008,1.223A3.87,3.87,0,0,1,54.9,63.49a4.114,4.114,0,0,1-1.165-3.075V54.266H52.193V52.183h1.545V48.332H56.32v3.851h3.227v2.075Z" transform="translate(11.998 11.111)" fill="#fff"/>
  <path id="Path_287" data-name="Path 287" d="M71.42,58.761H61.806a2.793,2.793,0,0,0,1.223,2.156,4.573,4.573,0,0,0,6.087-.635L70.591,61.9a6.859,6.859,0,0,1-5.166,2.051,6.15,6.15,0,0,1-4.392-1.722,6.057,6.057,0,0,1-1.809-4.611,5.96,5.96,0,0,1,1.845-4.6,6.188,6.188,0,0,1,4.345-1.706,6.292,6.292,0,0,1,4.254,1.515,5.2,5.2,0,0,1,1.751,4.161Zm-9.614-2.029h7.031a2.952,2.952,0,0,0-.968-2.375,3.539,3.539,0,0,0-2.386-.83,4.081,4.081,0,0,0-2.547.861,2.793,2.793,0,0,0-1.13,2.337" transform="translate(13.613 11.795)" fill="#fff"/>
  <path id="Path_288" data-name="Path 288" d="M76.1,63.947a6.191,6.191,0,0,1-4.4-1.74,6.314,6.314,0,0,1,.079-9.132,6.689,6.689,0,0,1,4.691-1.765,6.365,6.365,0,0,1,4.682,1.916l-1.521,1.867a4.9,4.9,0,0,0-3.205-1.384,4.043,4.043,0,0,0-2.8,1.072,3.556,3.556,0,0,0-1.187,2.766,3.994,3.994,0,0,0,4.07,4.046,4.493,4.493,0,0,0,3.24-1.567l1.52,1.657A7.056,7.056,0,0,1,76.1,63.944" transform="translate(16.057 11.795)" fill="#fff"/>
  <path id="Path_289" data-name="Path 289" d="M82.95,57.989V64.63H80.367V47.547H82.95V54.6a4.1,4.1,0,0,1,1.671-1.777,4.737,4.737,0,0,1,2.409-.646,4.56,4.56,0,0,1,3.355,1.268,4.935,4.935,0,0,1,1.279,3.665v7.516H89.082V57.9q0-3.389-2.813-3.39a3.378,3.378,0,0,0-2.328.892,3.3,3.3,0,0,0-.991,2.594" transform="translate(18.475 10.93)" fill="#fff"/>
  <path id="Path_290" data-name="Path 290" d="M94.122,57.124v6.641H91.539V51.5h2.583v2.236a4.762,4.762,0,0,1,7.435-1.152,4.941,4.941,0,0,1,1.28,3.669v7.512h-2.583V57.031q0-3.389-2.813-3.39a3.378,3.378,0,0,0-2.328.887,3.3,3.3,0,0,0-.991,2.6" transform="translate(21.043 11.795)" fill="#fff"/>
  <path id="Path_291" data-name="Path 291" d="M113.123,62.114a6.589,6.589,0,0,1-9.222,0,6.292,6.292,0,0,1,0-8.968,6.591,6.591,0,0,1,9.222,0,6.292,6.292,0,0,1,0,8.968Zm-7.389-1.591a3.93,3.93,0,0,0,5.557,0,4.249,4.249,0,0,0,0-5.787,3.929,3.929,0,0,0-5.557,0,4.251,4.251,0,0,0,0,5.788" transform="translate(23.461 11.796)" fill="#fff"/>
  <path id="Path_292" data-name="Path 292" d="M116.579,64.632H114V47.526h2.583Z" transform="translate(26.206 10.925)" fill="#fff"/>
  <path id="Path_293" data-name="Path 293" d="M128.606,62.114a6.589,6.589,0,0,1-9.222,0,6.292,6.292,0,0,1,0-8.968,6.592,6.592,0,0,1,9.222,0,6.292,6.292,0,0,1,0,8.968Zm-7.389-1.591a3.929,3.929,0,0,0,5.557,0,4.245,4.245,0,0,0,0-5.787,3.929,3.929,0,0,0-5.557,0,4.251,4.251,0,0,0,0,5.788" transform="translate(27.02 11.796)" fill="#fff"/>
  <path id="Path_294" data-name="Path 294" d="M140.971,51.5V62.2a6.312,6.312,0,0,1-1.764,4.876,6.419,6.419,0,0,1-4.53,1.626,7.976,7.976,0,0,1-5-1.729l1.221-1.959a5.992,5.992,0,0,0,3.631,1.36,4.238,4.238,0,0,0,2.9-.945,3.827,3.827,0,0,0,1.071-3.021V60.834a4.39,4.39,0,0,1-1.648,1.729,4.57,4.57,0,0,1-2.414.647,5.206,5.206,0,0,1-4.012-1.706,6.525,6.525,0,0,1,0-8.484,5.191,5.191,0,0,1,4-1.707,4.74,4.74,0,0,1,3.959,2.006V51.5ZM131.4,57.155a3.884,3.884,0,0,0,.927,2.611,3.134,3.134,0,0,0,2.513,1.1A3.319,3.319,0,0,0,137.4,59.8a3.742,3.742,0,0,0,.984-2.639,3.84,3.84,0,0,0-1-2.68,3.294,3.294,0,0,0-2.559-1.1,3.076,3.076,0,0,0-2.5,1.13,4.022,4.022,0,0,0-.933,2.639" transform="translate(29.622 11.796)" fill="#fff"/>
  <path id="Path_295" data-name="Path 295" d="M141.024,50a1.577,1.577,0,1,1,.526.361,1.579,1.579,0,0,1-.526-.361Zm2.42,14.709h-2.583V52.44h2.583Z" transform="translate(32.308 10.852)" fill="#fff"/>
  <path id="Path_296" data-name="Path 296" d="M156.56,58.761h-9.614a2.8,2.8,0,0,0,1.221,2.156,4.571,4.571,0,0,0,6.087-.635L155.73,61.9a6.858,6.858,0,0,1-5.166,2.051,6.149,6.149,0,0,1-4.392-1.722,6.06,6.06,0,0,1-1.809-4.611,5.962,5.962,0,0,1,1.845-4.6,6.192,6.192,0,0,1,4.345-1.706,6.3,6.3,0,0,1,4.255,1.515,5.2,5.2,0,0,1,1.751,4.161Zm-9.614-2.029h7.031a2.954,2.954,0,0,0-.968-2.375,3.536,3.536,0,0,0-2.386-.83,4.082,4.082,0,0,0-2.547.861,2.79,2.79,0,0,0-1.13,2.337" transform="translate(33.185 11.795)" fill="#fff"/>
  <path id="Path_297" data-name="Path 297" d="M164.593,60.1a3.448,3.448,0,0,1-1.267,2.807,4.931,4.931,0,0,1-3.251,1.049,8.706,8.706,0,0,1-2.778-.485,8.35,8.35,0,0,1-2.553-1.365l1.245-2.006a6.96,6.96,0,0,0,4.155,1.614,2.158,2.158,0,0,0,1.384-.406,1.256,1.256,0,0,0,.508-1.026q0-.921-2.444-1.66-.184-.068-.277-.092-3.832-1.034-3.832-3.455a3.285,3.285,0,0,1,1.326-2.732,5.473,5.473,0,0,1,3.444-1.026,7.171,7.171,0,0,1,4.012,1.245l-.968,1.914a5.779,5.779,0,0,0-3.251-.991,2.965,2.965,0,0,0-1.5.335,1.089,1.089,0,0,0-.576,1,.916.916,0,0,0,.6.876,5.765,5.765,0,0,0,1.165.392q.747.186,1.326.369t1.118.414a7.279,7.279,0,0,1,1.163.646,2.887,2.887,0,0,1,1.245,2.583" transform="translate(35.573 11.795)" fill="#fff"/>
</svg>
